HIERARCHY
ROOT Hips
{
	OFFSET 0.000000 0.000000 0.000000 
	CHANNELS 6 Xposition Yposition Zposition Zrotation Yrotation Xrotation
	JOINT LeftUpLeg
	{
		OFFSET 1.363060 -1.794630 0.839290 
		CHANNELS 3 Zrotation Yrotation Xrotation
		JOINT LeftLeg
		{
			OFFSET 2.448110 -6.726130 0.000000 
			CHANNELS 3 Zrotation Yrotation Xrotation
			JOINT LeftFoot
			{
				OFFSET 2.562200 -7.039590 0.000000 
				CHANNELS 3 Zrotation Yrotation Xrotation
				JOINT LeftToeBase
				{
					OFFSET 0.157640 -0.433110 2.322550 
					CHANNELS 3 Zrotation Yrotation Xrotation
					End Site
					{
						OFFSET 0.000000 0.000000 0.000000 
					}
				}
			}
		}
	}
	JOINT RightUpLeg
	{
		OFFSET -1.305520 -1.794630 0.839290 
		CHANNELS 3 Zrotation Yrotation Xrotation
		JOINT RightLeg
		{
			OFFSET -2.542530 -6.985550 0.000000 
			CHANNELS 3 Zrotation Yrotation Xrotation
			JOINT RightFoot
			{
				OFFSET -2.568260 -7.056230 0.000000 
				CHANNELS 3 Zrotation Yrotation Xrotation
				JOINT RightToeBase
				{
					OFFSET -0.164730 -0.452590 2.363150 
					CHANNELS 3 Zrotation Yrotation Xrotation
					End Site
					{
						OFFSET 0.000000 0.000000 0.000000 
					}
				}
			}
		}
	}
	JOINT Spine
	{
		OFFSET 0.028270 2.035590 -0.193380 
		CHANNELS 3 Zrotation Yrotation Xrotation
		JOINT Spine1
		{
			OFFSET 0.056720 2.048850 -0.042750 
			CHANNELS 3 Zrotation Yrotation Xrotation
			JOINT Neck1
			{
				OFFSET -0.054170 1.746240 0.172020 
				CHANNELS 3 Zrotation Yrotation Xrotation
				JOINT Head
				{
					OFFSET 0.104070 1.761360 -0.123970 
					CHANNELS 3 Zrotation Yrotation Xrotation
					End Site
					{
						OFFSET 0.000000 0.000000 0.000000 
					}
				}
			}
			JOINT LeftArm
			{
				OFFSET 3.362410 1.200890 -0.311210 
				CHANNELS 3 Zrotation Yrotation Xrotation
				JOINT LeftForeArm
				{
					OFFSET 4.983000 -0.000000 -0.000000 
					CHANNELS 3 Zrotation Yrotation Xrotation
					JOINT LeftHand
					{
						OFFSET 3.483560 -0.000000 -0.000000 
						CHANNELS 3 Zrotation Yrotation Xrotation
						JOINT LeftHandIndex1
						{
							OFFSET 0.715260 -0.000000 -0.000000 
							CHANNELS 3 Zrotation Yrotation Xrotation
							End Site
							{
								OFFSET 0.000000 0.000000 0.000000 
							}
						}
					}
				}
			}
			JOINT RightArm
			{
				OFFSET -3.136600 1.374050 -0.404650 
				CHANNELS 3 Zrotation Yrotation Xrotation
				JOINT RightForeArm
				{
					OFFSET -5.241900 -0.000000 -0.000000 
					CHANNELS 3 Zrotation Yrotation Xrotation
					JOINT RightHand
					{
						OFFSET -3.444170 -0.000000 -0.000000 
						CHANNELS 3 Zrotation Yrotation Xrotation
						JOINT RightHandIndex1
						{
							OFFSET -0.622530 -0.000000 -0.000000 
							CHANNELS 3 Zrotation Yrotation Xrotation
							End Site
							{
								OFFSET 0.000000 0.000000 0.000000 
							}
						}
					}
				}
			}
		}
	}
}
MOTION
Frames: 13
Frame Time: 0.041667
10.013871 17.867748 19.485609 -178.793669 -3.087684 -152.966651 -24.364008 -17.120539 -17.971057 -1.347906 4.080869 8.918554 0.812776 -1.031128 -17.452902 4.636900 -12.962800 -39.229500 29.805702 20.761757 -18.308654 1.229093 -4.405383 9.236110 -1.000682 0.158612 -20.516067 -3.298900 11.163800 -32.834300 1.750147 -1.399347 -6.054732 -0.404957 -1.522760 12.159088 13.259796 -3.972027 -1.733058 3.190000 -2.557000 -3.964900 -105.624682 -7.021149 15.857651 9.529554 -9.354767 -0.945243 -1.972981 1.278897 5.171010 -7.125000 0.000000 0.000000 99.594426 0.165259 7.961405 -10.544455 19.520433 -2.484136 1.353536 3.928184 4.832721 7.125000 0.000000 0.000000 
10.012119 17.869281 19.486704 -178.797908 -3.118921 -152.922971 -24.401074 -17.059390 -18.001686 -1.351404 4.058305 8.853100 0.810699 -0.927132 -17.290175 5.004900 -13.389300 -40.843900 29.723618 20.984312 -18.387632 1.227892 -4.473193 9.374726 -1.006676 0.127102 -20.604706 -3.070500 10.808300 -31.636100 1.737043 -1.361409 -6.043120 -0.499392 -1.514084 12.226017 13.338772 -4.069647 -1.829217 3.182300 -2.627700 -3.980200 -105.741312 -7.514356 12.938503 9.355295 -9.173379 -0.911443 -1.370891 1.305059 8.040017 -7.125000 0.000000 0.000000 99.739288 0.244076 7.930805 -10.585092 19.579817 -2.501784 1.347030 3.973195 4.897530 7.125000 0.000000 0.000000 
10.012557 17.870157 19.489222 -178.824245 -3.077794 -152.930822 -24.441314 -17.065745 -18.016568 -1.351756 4.083953 8.913454 0.820798 -0.863671 -17.328534 5.079800 -13.473100 -41.166400 29.683112 20.965325 -18.399306 1.224808 -4.476320 9.384499 -1.007307 0.187469 -20.603503 -3.103900 10.861300 -31.813600 1.711062 -1.259735 -6.013800 -0.544638 -1.473636 12.307730 13.381356 -4.181162 -1.937947 3.167600 -2.702700 -3.990100 -105.812747 -7.963554 10.389915 9.224817 -9.081726 -0.891364 -0.734346 1.237316 10.627557 -7.125000 0.000000 0.000000 99.843878 0.391755 7.675905 -10.579384 19.559484 -2.497421 1.350583 3.971952 4.885063 7.125000 0.000000 0.000000 
10.012995 17.868734 19.492945 -178.790625 -3.028110 -152.840651 -24.379384 -17.054429 -18.166805 -1.350368 4.130426 9.004242 0.824853 -0.898759 -17.442070 5.047400 -13.436900 -41.026900 29.674359 20.944494 -18.587473 1.221387 -4.519472 9.451084 -1.004920 0.284162 -20.601664 -3.168100 10.962400 -32.153100 1.691881 -1.128747 -5.984872 -0.606466 -1.425305 12.449462 13.454423 -4.285318 -2.029332 3.166900 -2.773000 -3.991400 -106.014789 -8.706057 5.010665 8.927240 -8.903717 -0.845171 0.548080 0.952518 16.365692 -7.125000 0.000000 0.000000 99.953051 0.603495 7.282594 -10.548117 19.492955 -2.479910 1.358014 3.966367 5.023161 7.125000 0.000000 0.000000 
10.009382 17.866325 19.492836 -178.691982 -2.874756 -152.751432 -24.288641 -17.078454 -18.223883 -1.361575 4.123801 8.968744 0.852239 -0.753769 -17.586781 5.083400 -13.477000 -41.181500 29.722684 20.850654 -18.836966 1.209801 -4.583397 9.563161 -0.989821 0.527751 -20.468197 -3.234300 11.065000 -32.499400 1.649867 -0.935595 -5.939243 -0.662607 -1.341075 12.624989 13.503965 -4.383605 -2.121930 3.152300 -2.842100 -3.995000 -105.926281 -9.036622 4.188548 8.793287 -8.721272 -0.809600 0.559968 0.983027 17.687231 -7.125000 0.000000 0.000000 100.072324 0.817589 6.910709 -10.517814 19.443676 -2.467766 1.365699 3.966894 5.161158 7.125000 0.000000 0.000000 
10.010477 17.865339 19.499515 -178.676600 -2.840280 -152.601803 -24.230747 -17.097067 -18.457167 -1.359830 4.172480 9.041110 0.845376 -0.759123 -17.546270 5.096600 -13.491700 -41.238200 29.686770 20.776821 -19.140583 1.202365 -4.648828 9.660566 -0.965822 0.628840 -20.273157 -3.281800 11.137800 -32.746200 1.598961 -0.613437 -5.862069 -0.529250 -1.191013 12.880894 13.461796 -4.635260 -2.242483 3.007500 -3.004200 -3.954400 -106.181643 -8.092086 10.788176 8.286869 -7.505223 -0.700672 -1.243634 2.133815 24.737504 -7.125000 0.000000 0.000000 100.298524 1.128590 6.152507 -10.552297 19.454132 -2.477571 1.383397 3.977977 5.271524 7.125000 0.000000 0.000000 
10.012776 17.864682 19.502253 -178.666652 -2.804315 -152.539062 -24.187881 -17.075588 -18.566650 -1.360769 4.192498 9.071252 0.846631 -0.680414 -17.472149 5.146000 -13.546400 -41.449700 29.681022 20.759250 -19.251083 1.200195 -4.662934 9.670010 -0.954994 0.678651 -20.180757 -3.329000 11.209500 -32.989900 1.602744 -0.582469 -5.857839 -0.455851 -1.181613 12.914654 13.490383 -4.663450 -2.247607 3.001300 -3.023400 -3.939500 -106.166606 -8.117147 11.300933 8.308981 -7.520266 -0.703768 -1.289489 2.105664 24.106769 -7.125000 0.000000 0.000000 100.303488 1.135308 5.937218 -10.552721 19.439113 -2.469112 1.370706 3.941189 5.450448 7.125000 0.000000 0.000000 
10.016718 17.869500 19.495464 -178.790896 -3.032961 -152.813769 -24.367377 -16.992348 -18.247822 -1.346111 4.144666 9.022480 0.807765 -0.942433 -17.307423 5.075900 -13.468700 -41.149500 29.763513 20.573500 -18.629320 1.213114 -4.471511 9.344593 -0.967322 0.409375 -20.205693 -3.330900 11.212400 -32.999700 1.624976 -0.703168 -5.834535 -0.369211 -1.233151 12.929219 13.525701 -4.671312 -2.253708 3.019200 -3.028400 -3.941000 -106.168805 -8.156698 11.203329 8.291962 -7.498231 -0.701012 -1.285901 2.118558 24.068842 -7.125000 0.000000 0.000000 100.270441 1.121572 5.921246 -10.536254 19.401906 -2.455274 1.359754 3.910896 5.569414 7.125000 0.000000 0.000000 
10.018799 17.869938 19.495245 -178.822360 -3.058300 -152.875522 -24.409755 -16.990295 -18.161780 -1.341687 4.123019 8.984527 0.791170 -1.045667 -17.236469 4.880000 -13.247400 -40.301700 29.777686 20.539126 -18.455824 1.215053 -4.403812 9.214098 -0.964910 0.403011 -20.150544 -3.258400 11.102000 -32.624600 1.634640 -0.736683 -5.838985 -0.316030 -1.246038 12.885990 13.554597 -4.671329 -2.287174 3.040400 -3.031300 -3.965700 -106.157334 -8.114809 11.063810 8.301172 -7.525890 -0.705122 -1.278836 2.144683 24.235185 -7.125000 0.000000 0.000000 100.228082 1.162732 5.944124 -10.507335 19.352547 -2.443555 1.360200 3.919699 5.657510 7.125000 0.000000 0.000000 
10.018361 17.869062 19.496121 -178.782542 -3.019797 -152.864030 -24.365467 -17.031073 -18.123128 -1.352096 4.095009 8.913980 0.814777 -0.894366 -17.312868 4.910700 -13.282600 -40.435600 29.801090 20.555261 -18.470160 1.212635 -4.400158 9.197565 -0.963424 0.508988 -20.131552 -3.187100 10.991900 -32.252500 1.635818 -0.705603 -5.840622 -0.297395 -1.228151 12.874384 13.590239 -4.687221 -2.322499 3.071400 -3.040800 -3.991700 -106.150609 -8.037572 11.452227 8.351234 -7.594933 -0.714820 -1.315537 2.123344 23.855141 -7.125000 0.000000 0.000000 100.189837 1.200260 5.820589 -10.479077 19.303044 -2.429960 1.349353 3.912956 5.769365 7.125000 0.000000 0.000000 
10.019018 17.866325 19.503786 -178.670823 -2.952690 -152.668081 -24.174770 -17.032592 -18.356443 -1.362118 4.097025 8.870399 0.828919 -0.799692 -17.387754 4.927500 -13.301600 -40.508300 29.793631 20.743175 -18.870348 1.209763 -4.516725 9.377831 -0.960055 0.631256 -20.174365 -3.117200 10.882300 -31.884000 1.633572 -0.651519 -5.863750 -0.323140 -1.203652 12.837600 13.640305 -4.712944 -2.360928 3.107400 -3.056500 -4.016900 -106.132295 -8.014621 11.981504 8.384204 -7.626707 -0.720551 -1.356508 2.095490 23.253884 -7.125000 0.000000 0.000000 100.210386 1.145802 5.987005 -10.509433 19.359788 -2.448323 1.364873 3.927694 5.481496 7.125000 0.000000 0.000000 
10.018580 17.857236 19.519006 -178.408817 -2.522877 -152.136899 -23.781000 -17.022368 -19.011182 -1.384523 4.165265 8.911561 0.873615 -0.399623 -17.487284 4.928000 -13.302300 -40.510900 29.699023 21.166874 -19.975910 1.192976 -4.829132 9.868688 -0.936539 1.113338 -20.138527 -3.068600 10.805200 -31.625800 1.607521 -0.431071 -5.913360 -0.385874 -1.111502 12.792832 13.680906 -4.740354 -2.426426 3.136800 -3.076700 -4.058600 -106.096882 -7.993733 12.457715 8.422043 -7.671399 -0.728001 -1.379646 2.069935 22.710078 -7.125000 0.000000 0.000000 100.238113 1.112626 6.182159 -10.530332 19.404179 -2.464025 1.375687 3.950304 5.153472 7.125000 0.000000 0.000000 
10.023398 17.870048 19.503567 -178.750349 -2.958172 -152.831860 -24.326335 -16.889805 -18.216234 -1.353790 4.091543 8.899586 0.815043 -0.874690 -17.293241 5.018100 -13.404100 -40.900700 29.772529 20.783464 -18.625354 1.210738 -4.496244 9.388071 -0.971757 0.516131 -20.254765 -2.983400 10.668200 -31.168800 1.621133 -0.644812 -5.851189 -0.282146 -1.196441 12.801491 13.714939 -4.754649 -2.471867 3.165000 -3.087300 -4.094800 -106.082569 -7.959096 12.665415 8.454912 -7.725199 -0.735744 -1.378343 2.051587 22.358273 -7.125000 0.000000 0.000000 100.226945 1.126979 6.116192 -10.506812 19.354235 -2.447686 1.356749 3.929545 5.251506 7.125000 0.000000 0.000000 
